<?xml version="1.0" encoding="utf-8"?>
<!-- Generator: Adobe Illustrator 16.0.0, SVG Export Plug-In . SVG Version: 6.00 Build 0)  -->
<!DOCTYPE svg PUBLIC "-//W3C//DTD SVG 1.1//EN" "http://www.w3.org/Graphics/SVG/1.1/DTD/svg11.dtd">
<svg version="1.1" id="Layer_1" xmlns="http://www.w3.org/2000/svg" xmlns:xlink="http://www.w3.org/1999/xlink" x="0px" y="0px"
	 width="200px" height="65.25px" viewBox="0 0 200 65.25" enable-background="new 0 0 200 65.25" xml:space="preserve">
<g>
	<path d="M21.615,30.404V12.257c0-2.286-0.523-3.994-1.567-5.12c-1.044-1.127-2.68-1.688-4.906-1.688
		c-2.944,0-5.102,0.792-6.472,2.379c-1.369,1.588-2.055,4.207-2.055,7.859v14.717H2.352V2.351h4.134l0.027,3.839h0.205
		c0.875-1.381,2.098-2.452,3.674-3.211c1.573-0.759,3.329-1.14,5.264-1.14c3.391,0,5.942,0.815,7.654,2.444
		c1.713,1.631,2.568,4.236,2.568,7.82v18.301H21.615z"/>
	<path d="M59.191,30.917c-4.074,0-7.229-1.25-9.465-3.75c-2.235-2.499-3.353-6.035-3.353-10.609c0-4.692,1.135-8.32,3.403-10.879
		c2.269-2.56,5.5-3.84,9.696-3.84c1.351,0,2.704,0.145,4.057,0.437c1.353,0.288,2.415,0.629,3.185,1.023l-1.309,3.608
		c-0.942-0.375-1.97-0.687-3.082-0.935c-1.114-0.246-2.099-0.371-2.952-0.371c-5.723,0-8.581,3.636-8.581,10.904
		c0,3.447,0.698,6.093,2.096,7.934c1.394,1.843,3.462,2.764,6.201,2.764c2.347,0,4.752-0.501,7.218-1.508v3.762
		C64.421,30.431,62.05,30.917,59.191,30.917z"/>
	<path d="M78.195,16.045c0.736-1.041,1.855-2.405,3.363-4.096l9.093-9.599h5.06L84.307,14.304l12.2,16.101h-5.162l-9.938-13.26
		l-3.211,2.766v10.494h-4.213V1.576h4.213v10.118c0,0.939-0.069,2.389-0.206,4.351H78.195z"/>
	<path d="M16.761,63.175c-4.075,0-7.229-1.25-9.465-3.749c-2.233-2.5-3.352-6.036-3.352-10.61c0-4.691,1.136-8.318,3.404-10.878
		c2.269-2.559,5.5-3.839,9.696-3.839c1.35,0,2.704,0.146,4.056,0.436c1.354,0.291,2.415,0.632,3.186,1.022l-1.311,3.609
		c-0.94-0.375-1.968-0.686-3.08-0.934c-1.112-0.247-2.099-0.373-2.954-0.373c-5.721,0-8.58,3.637-8.58,10.907
		c0,3.445,0.698,6.09,2.095,7.932c1.395,1.845,3.462,2.766,6.202,2.766c2.346,0,4.751-0.503,7.216-1.511v3.762
		C21.991,62.69,19.621,63.175,16.761,63.175z"/>
	<linearGradient id="SVGID_1_" gradientUnits="userSpaceOnUse" x1="36.793" y1="62.6631" x2="36.793" y2="2.3506">
		<stop  offset="0" style="stop-color:#000000;stop-opacity:0"/>
		<stop  offset="0.8828" style="stop-color:#000000"/>
	</linearGradient>
	<path fill="url(#SVGID_1_)" d="M38.926,62.663h-4.265V2.351h4.265V62.663z"/>
	<path d="M63.875,62.663l-0.05-3.992h-0.206c-1.404,1.757-2.803,2.947-4.199,3.569c-1.395,0.624-3.137,0.935-5.226,0.935
		c-2.791,0-4.98-0.716-6.562-2.148c-1.585-1.435-2.376-3.472-2.376-6.117c0-5.667,4.546-8.636,13.64-8.908l4.774-0.155v-1.74
		c0-2.199-0.474-3.825-1.426-4.875c-0.949-1.051-2.468-1.574-4.558-1.574c-2.346,0-4.999,0.716-7.961,2.148l-1.311-3.25
		c1.387-0.75,2.906-1.338,4.56-1.767c1.651-0.425,3.309-0.639,4.968-0.639c3.357,0,5.844,0.741,7.463,2.228
		c1.617,1.482,2.427,3.864,2.427,7.141v19.146H63.875z M55.04,59.668c2.654,0,4.739-0.725,6.255-2.175
		c1.515-1.451,2.272-3.481,2.272-6.092v-2.533l-4.263,0.179c-3.39,0.119-5.834,0.643-7.332,1.573
		c-1.499,0.931-2.247,2.378-2.247,4.338c0,1.536,0.465,2.705,1.398,3.508C52.057,59.269,53.362,59.668,55.04,59.668z"/>
	<path d="M100.681,62.663l-5.16-16.457c-0.326-1.007-0.935-3.293-1.825-6.86h-0.204c-0.686,2.987-1.285,5.291-1.799,6.91
		l-5.316,16.407h-4.93L73.765,34.61h4.47c1.814,7.048,3.197,12.414,4.147,16.102c0.95,3.685,1.493,6.168,1.631,7.446h0.206
		c0.188-0.972,0.493-2.23,0.911-3.774c0.42-1.545,0.784-2.768,1.093-3.672l5.163-16.102h4.623l5.033,16.102
		c0.958,2.934,1.61,5.399,1.953,7.395h0.205c0.066-0.613,0.252-1.56,0.552-2.841c0.298-1.279,2.083-8.164,5.354-20.655h4.418
		l-7.781,28.053H100.681z"/>
	<path d="M138.766,55.011c0,2.609-0.975,4.624-2.925,6.041c-1.953,1.416-4.694,2.123-8.22,2.123c-3.734,0-6.645-0.587-8.732-1.766
		v-3.941c1.351,0.683,2.803,1.22,4.353,1.613c1.549,0.392,3.045,0.587,4.481,0.587c2.226,0,3.938-0.354,5.137-1.062
		c1.198-0.706,1.799-1.785,1.799-3.237c0-1.092-0.475-2.024-1.427-2.803c-0.949-0.775-2.804-1.693-5.561-2.751
		c-2.619-0.973-4.48-1.823-5.585-2.546c-1.104-0.727-1.926-1.55-2.467-2.471c-0.537-0.922-0.809-2.023-0.809-3.302
		c0-2.287,0.933-4.092,2.8-5.413c1.866-1.323,4.425-1.984,7.68-1.984c3.029,0,5.992,0.614,8.887,1.843l-1.515,3.455
		c-2.827-1.159-5.387-1.74-7.681-1.74c-2.021,0-3.545,0.315-4.572,0.947c-1.027,0.631-1.54,1.502-1.54,2.61
		c0,0.751,0.191,1.392,0.577,1.921c0.386,0.527,1.006,1.031,1.861,1.51c0.856,0.478,2.501,1.169,4.932,2.073
		c3.341,1.212,5.596,2.431,6.769,3.658C138.181,51.607,138.766,53.151,138.766,55.011z"/>
	<path d="M168.999,48.61c0,4.575-1.154,8.145-3.468,10.712c-2.31,2.569-5.504,3.853-9.58,3.853c-2.518,0-4.75-0.587-6.702-1.766
		c-1.951-1.176-3.461-2.866-4.521-5.067c-1.062-2.201-1.592-4.777-1.592-7.731c0-4.571,1.147-8.134,3.443-10.687
		c2.292-2.55,5.477-3.825,9.554-3.825c3.937,0,7.065,1.305,9.386,3.917C167.839,40.624,168.999,44.158,168.999,48.61z
		 M147.553,48.61c0,3.584,0.72,6.316,2.158,8.19c1.438,1.879,3.553,2.818,6.344,2.818c2.79,0,4.91-0.936,6.356-2.805
		c1.447-1.868,2.17-4.603,2.17-8.204c0-3.564-0.723-6.274-2.17-8.126c-1.446-1.852-3.583-2.777-6.407-2.777
		c-2.791,0-4.898,0.912-6.319,2.738S147.553,44.994,147.553,48.61z"/>
	<path d="M193.736,62.663V44.516c0-2.286-0.522-3.993-1.565-5.119c-1.047-1.128-2.681-1.689-4.905-1.689
		c-2.946,0-5.104,0.794-6.475,2.382c-1.369,1.586-2.054,4.206-2.054,7.858v14.716h-4.264V34.61h4.214l-0.053,3.84h0.206
		c0.873-1.383,2.096-2.454,3.673-3.212c1.572-0.761,3.33-1.14,5.263-1.14c3.393,0,5.942,0.816,7.654,2.443
		c1.713,1.63,2.569,4.237,2.569,7.82v18.301H193.736z"/>
</g>
</svg>
